<svg width="184" height="49" viewBox="0 0 184 49" fill="none" xmlns="http://www.w3.org/2000/svg">
<path d="M4.57602 43.1041C0.0686166 39.5819 -0.0160509 35.6533 2.0129 33.0564C4.04184 30.4594 7.79185 29.9991 10.3888 32.0265L13.9156 34.782C16.5126 36.811 20.2642 36.3522 22.2931 33.7537C24.3221 31.1583 23.8602 27.4067 21.2648 25.3778L17.7364 22.6222C15.141 20.5933 14.6807 16.8433 16.7081 14.2447C18.7371 11.6493 22.4886 11.189 25.0856 13.2164L28.6863 16.0289C34.8821 20.8701 37.0065 29.0871 34.4428 36.1635C32.2175 35.6142 29.776 36.3722 28.2725 38.2953C26.754 40.2379 26.6228 42.8255 27.7322 44.8627C21.4159 49.2631 12.5679 49.3486 4.57602 43.1041Z" fill="#197DFF" style="fill:#197DFF;fill:color(display-p3 0.0980 0.4902 1.0000);fill-opacity:1;"/>
<path fill-rule="evenodd" clip-rule="evenodd" d="M37.729 45.6829C39.7687 43.0721 39.3053 39.3005 36.6945 37.2608C34.0836 35.2211 30.3136 35.6844 28.2724 38.2953C26.2326 40.9046 26.696 44.6777 29.3069 46.7174C31.9177 48.7571 35.6893 48.2938 37.729 45.6829Z" fill="#3CDDC2" style="fill:#3CDDC2;fill:color(display-p3 0.2333 0.8647 0.7608);fill-opacity:1;"/>
<path d="M34.4254 4.89652C38.9328 8.41715 39.0175 12.3473 36.9885 14.9443C34.9596 17.5412 31.2096 18.0015 28.6126 15.9726L25.0858 13.217C22.4888 11.1896 18.7373 11.6484 16.7083 14.2454C14.6794 16.8423 15.1412 20.5939 17.7367 22.6213L21.265 25.3768C23.8604 27.4073 24.3207 31.1573 22.2933 33.7543C20.2644 36.3513 16.5128 36.8116 13.9158 34.7827L10.3152 31.9701C4.11954 27.1291 1.99511 18.9133 4.55851 11.8366C6.78447 12.386 9.22586 11.6281 10.7283 9.70489C12.2469 7.76109 12.3781 5.17389 11.2685 3.13703C17.5848 -1.26344 26.4332 -1.34821 34.4254 4.89652Z" fill="#3CDDC2" style="fill:#3CDDC2;fill:color(display-p3 0.2333 0.8647 0.7608);fill-opacity:1;"/>
<path fill-rule="evenodd" clip-rule="evenodd" d="M10.7284 9.7049C12.7681 7.09406 12.3048 3.3225 9.69388 1.28278C7.08304 -0.756942 3.31303 -0.293579 1.27177 2.31727C-0.767959 4.92811 -0.304596 8.69967 2.30625 10.7394C4.91863 12.7791 8.68864 12.3157 10.7284 9.7049Z" fill="#197DFF" style="fill:#197DFF;fill:color(display-p3 0.0980 0.4902 1.0000);fill-opacity:1;"/>
<path fill-rule="evenodd" clip-rule="evenodd" d="M95.1671 32.9502C95.8537 32.9502 96.4875 33.0963 97.0675 33.3896C97.6473 33.683 98.0971 34.0833 98.4171 34.5898H98.4571V33.6504C98.4571 33.5304 98.4972 33.4296 98.5772 33.3496C98.6638 33.2698 98.767 33.2305 98.8868 33.2305H100.117C100.237 33.2305 100.337 33.2737 100.417 33.3604C100.497 33.4403 100.537 33.5371 100.537 33.6504V43.1602C100.537 44.7533 100.094 45.9799 99.2071 46.8398C98.3205 47.7065 97.0971 48.1396 95.5372 48.1396C94.8905 48.1396 94.3 48.0532 93.7667 47.8799C93.2335 47.7132 92.7569 47.4631 92.337 47.1299C91.917 46.8032 91.6032 46.4534 91.3966 46.0801C91.1899 45.7135 91.1004 45.4799 91.127 45.3799C91.1537 45.2801 91.2136 45.2037 91.3067 45.1504L92.377 44.6201C92.4704 44.5668 92.564 44.5503 92.6573 44.5703C92.7506 44.5906 92.8805 44.7305 93.0469 44.9902C93.2136 45.2502 93.4204 45.4869 93.6671 45.7002C93.9136 45.9134 94.1969 46.073 94.5167 46.1797C94.8367 46.2864 95.1741 46.3398 95.5274 46.3398C96.4605 46.3398 97.1738 46.0701 97.6671 45.5303C98.1604 44.9903 98.4073 44.2331 98.4073 43.2598V42.0498H98.337C97.997 42.5564 97.5473 42.9505 96.9874 43.2305C96.4341 43.5104 95.8105 43.6504 95.1173 43.6504C93.804 43.6504 92.7175 43.1832 91.8575 42.25C90.9976 41.3168 90.5675 40.0603 90.5675 38.4805V38.1104C90.5675 36.5571 91.0069 35.3101 91.8868 34.3701C92.7668 33.4235 93.8604 32.9502 95.1671 32.9502ZM95.587 34.8203C94.7537 34.8203 94.0602 35.1135 93.5069 35.7002C92.9603 36.2868 92.6866 37.0904 92.6866 38.1104V38.4697C92.6866 39.5231 92.9571 40.3399 93.4971 40.9199C94.0438 41.4999 94.7403 41.79 95.587 41.79C96.4202 41.79 97.1066 41.4864 97.6466 40.8799C98.1866 40.2732 98.4571 39.4666 98.4571 38.46V38.0703C98.4571 37.0836 98.1866 36.2966 97.6466 35.71C97.1066 35.1168 96.4202 34.8203 95.587 34.8203Z" fill="#1F2123" style="fill:#1F2123;fill:color(display-p3 0.1216 0.1294 0.1373);fill-opacity:1;"/>
<path d="M130.197 33.2305C130.284 33.2305 130.364 33.2564 130.438 33.3096C130.511 33.3562 130.564 33.42 130.598 33.5L133.078 39.6504L133.357 40.54H133.428L133.728 39.6299L136.078 33.5C136.112 33.4268 136.164 33.3629 136.237 33.3096C136.311 33.2562 136.388 33.2305 136.468 33.2305H137.808C137.961 33.2305 138.078 33.2902 138.158 33.4102C138.238 33.5233 138.244 33.6565 138.178 33.8096L132.447 47.6201C132.414 47.6866 132.361 47.7466 132.288 47.7998C132.215 47.8531 132.135 47.8799 132.048 47.8799H130.697C130.551 47.8798 130.437 47.8201 130.357 47.7002C130.284 47.5802 130.281 47.4465 130.348 47.2998L132.324 42.8398L128.478 33.8203C128.404 33.6605 128.408 33.5234 128.487 33.4102C128.574 33.2902 128.691 33.2305 128.838 33.2305H130.197Z" fill="#1F2123" style="fill:#1F2123;fill:color(display-p3 0.1216 0.1294 0.1373);fill-opacity:1;"/>
<path fill-rule="evenodd" clip-rule="evenodd" d="M70.2618 32.9502C71.6883 32.9502 72.8387 33.3866 73.712 34.2598C74.5919 35.1263 75.0322 36.2131 75.0323 37.5195V38.3896C75.0323 38.5029 74.9921 38.5997 74.9122 38.6797C74.8389 38.7596 74.7357 38.7997 74.6026 38.7998H67.4708C67.5142 39.7455 67.7964 40.5088 68.3223 41.0898C68.9023 41.7165 69.639 42.0303 70.5323 42.0303C70.9454 42.0303 71.2986 41.9736 71.5919 41.8604C71.8851 41.7471 72.1455 41.5936 72.3721 41.4004C72.6055 41.2071 72.8452 40.9262 73.0919 40.5596C73.1651 40.4598 73.2487 40.3968 73.3419 40.3701C73.4352 40.3435 73.5288 40.3568 73.6221 40.4102L74.5723 40.9502C74.6655 41.0035 74.7222 41.0799 74.7423 41.1797C74.7623 41.273 74.7417 41.38 74.6817 41.5C74.3818 42.0532 74.0225 42.4937 73.6026 42.8203C73.1893 43.147 72.7253 43.3929 72.212 43.5596C71.7054 43.7329 71.0889 43.8203 70.3624 43.8203C68.8824 43.8203 67.6756 43.3296 66.7423 42.3496C65.8158 41.3697 65.3527 40.1101 65.3526 38.5703V38.2002C65.3526 36.6802 65.8125 35.4271 66.7325 34.4404C67.6524 33.4472 68.8286 32.9503 70.2618 32.9502ZM70.252 34.7803C69.4188 34.7803 68.7458 35.0838 68.2325 35.6904C67.856 36.1306 67.618 36.6871 67.5176 37.3604H72.9122V37.2197C72.8721 36.5132 72.6159 35.9297 72.1426 35.4697C71.6693 35.0097 71.0387 34.7803 70.252 34.7803Z" fill="#1F2123" style="fill:#1F2123;fill:color(display-p3 0.1216 0.1294 0.1373);fill-opacity:1;"/>
<path d="M80.4278 32.9502C81.0145 32.9502 81.5381 33.0171 81.9981 33.1504C82.4646 33.2837 82.8816 33.4896 83.2481 33.7695C83.6148 34.0429 83.8782 34.3134 84.0382 34.5801C84.1981 34.8466 84.264 35.0237 84.2374 35.1104C84.2173 35.1968 84.1709 35.2671 84.0977 35.3203L83.1475 35.8701C83.0743 35.9166 82.9979 35.9404 82.918 35.9404C82.838 35.9338 82.7208 35.8402 82.5674 35.6602C82.4141 35.4735 82.2309 35.3068 82.0176 35.1602C81.8044 35.0069 81.5613 34.8936 81.2882 34.8203C81.0215 34.747 80.7242 34.71 80.3975 34.71C79.8779 34.71 79.4514 34.8234 79.1182 35.0498C78.7917 35.2764 78.6281 35.5431 78.628 35.8496C78.628 36.1896 78.7576 36.4735 79.0176 36.7002C79.2843 36.9269 79.9479 37.18 81.0079 37.46C82.3145 37.7933 83.2374 38.2171 83.7774 38.7305C84.3241 39.2438 84.5977 39.8704 84.5977 40.6104C84.5976 41.5702 84.2139 42.3472 83.4473 42.9404C82.6874 43.5268 81.6973 43.8203 80.4776 43.8203C79.8177 43.8203 79.2342 43.737 78.7276 43.5703C78.2211 43.4104 77.7712 43.1736 77.378 42.8604C76.9914 42.5404 76.7012 42.2069 76.5079 41.8604C76.3146 41.5139 76.2313 41.2936 76.2579 41.2002C76.2845 41.1002 76.3411 41.0231 76.4278 40.9697L77.4083 40.4102C77.4882 40.3636 77.5717 40.347 77.6583 40.3604C77.7516 40.3741 77.8816 40.507 78.0479 40.7598C78.2146 41.0064 78.4214 41.2338 78.668 41.4404C78.9146 41.647 79.1916 41.8035 79.4981 41.9102C79.8047 42.0101 80.1712 42.0596 80.5977 42.0596C81.1843 42.0596 81.6474 41.9463 81.9874 41.7197C82.3339 41.4931 82.5078 41.1636 82.5079 40.7305C82.5079 40.3572 82.3648 40.0629 82.0782 39.8496C81.7915 39.6363 81.1475 39.3996 80.1475 39.1396C78.8877 38.8263 77.9708 38.4137 77.3975 37.9004C76.8242 37.3804 76.5382 36.7168 76.5382 35.9102C76.5382 35.0368 76.9116 34.3269 77.6583 33.7803C78.4116 33.227 79.3346 32.9502 80.4278 32.9502Z" fill="#1F2123" style="fill:#1F2123;fill:color(display-p3 0.1216 0.1294 0.1373);fill-opacity:1;"/>
<path d="M122.849 28.8604C123.569 28.8604 124.209 28.9664 124.769 29.1797C125.335 29.393 125.809 29.6965 126.189 30.0898C126.569 30.4765 126.829 30.85 126.969 31.21C127.109 31.5631 127.155 31.7865 127.108 31.8799C127.068 31.9665 127.002 32.0303 126.908 32.0703L125.759 32.54C125.666 32.58 125.578 32.5903 125.498 32.5703C125.418 32.5435 125.321 32.4302 125.208 32.2305C125.101 32.0238 124.932 31.7996 124.698 31.5596C124.472 31.3131 124.198 31.1266 123.878 31C123.565 30.8668 123.205 30.7999 122.799 30.7998C122.132 30.7998 121.588 30.9634 121.168 31.29C120.755 31.6099 120.549 32.0332 120.549 32.5596V32.6104C120.549 33.0768 120.722 33.4897 121.068 33.8496C121.422 34.2096 122.309 34.6437 123.729 35.1504C125.062 35.6304 126.045 36.2333 126.679 36.96C127.312 37.6799 127.628 38.5401 127.628 39.54V39.6201C127.628 40.9201 127.178 41.9469 126.278 42.7002C125.385 43.4468 124.238 43.8203 122.838 43.8203C121.998 43.8203 121.258 43.6834 120.618 43.4102C119.985 43.1302 119.465 42.7495 119.059 42.2695C118.652 41.7897 118.362 41.3068 118.189 40.8203C118.022 40.3339 117.962 40.0406 118.009 39.9404C118.056 39.8338 118.129 39.7597 118.229 39.7197L119.418 39.25C119.518 39.21 119.615 39.2101 119.708 39.25C119.808 39.2833 119.932 39.4832 120.078 39.8496C120.225 40.2096 120.429 40.5501 120.689 40.8701C120.955 41.19 121.278 41.4401 121.658 41.6201C122.038 41.7934 122.472 41.8798 122.958 41.8799C123.711 41.8799 124.322 41.6801 124.788 41.2803C125.255 40.8803 125.488 40.3566 125.488 39.71V39.6299C125.488 39.0768 125.275 38.597 124.849 38.1904C124.422 37.7838 123.598 37.3537 122.378 36.9004C120.885 36.3471 119.846 35.7431 119.259 35.0898C118.679 34.4298 118.389 33.6397 118.389 32.7197V32.6602C118.389 31.5802 118.805 30.6769 119.639 29.9502C120.472 29.2236 121.542 28.8604 122.849 28.8604Z" fill="#1F2123" style="fill:#1F2123;fill:color(display-p3 0.1216 0.1294 0.1373);fill-opacity:1;"/>
<path d="M142.908 32.9502C143.495 32.9502 144.019 33.0171 144.479 33.1504C144.945 33.2837 145.362 33.4896 145.729 33.7695C146.095 34.0429 146.359 34.3134 146.519 34.5801C146.679 34.8466 146.745 35.0237 146.718 35.1104C146.698 35.1968 146.651 35.2671 146.578 35.3203L145.628 35.8701C145.555 35.9166 145.478 35.9404 145.399 35.9404C145.319 35.9338 145.201 35.8402 145.048 35.6602C144.895 35.4735 144.711 35.3068 144.498 35.1602C144.285 35.0069 144.042 34.8936 143.769 34.8203C143.502 34.747 143.205 34.71 142.878 34.71C142.358 34.71 141.932 34.8234 141.599 35.0498C141.272 35.2764 141.109 35.5431 141.108 35.8496C141.108 36.1896 141.238 36.4735 141.498 36.7002C141.765 36.9269 142.428 37.18 143.488 37.46C144.795 37.7933 145.718 38.2171 146.258 38.7305C146.805 39.2438 147.078 39.8704 147.078 40.6104C147.078 41.5702 146.694 42.3472 145.928 42.9404C145.168 43.5268 144.178 43.8203 142.958 43.8203C142.298 43.8203 141.715 43.737 141.208 43.5703C140.702 43.4104 140.252 43.1736 139.858 42.8604C139.472 42.5404 139.182 42.2069 138.988 41.8604C138.795 41.5139 138.712 41.2936 138.738 41.2002C138.765 41.1002 138.822 41.0231 138.908 40.9697L139.889 40.4102C139.969 40.3636 140.052 40.347 140.139 40.3604C140.232 40.3741 140.362 40.507 140.528 40.7598C140.695 41.0064 140.902 41.2338 141.149 41.4404C141.395 41.647 141.672 41.8035 141.979 41.9102C142.285 42.0101 142.652 42.0596 143.078 42.0596C143.665 42.0596 144.128 41.9463 144.468 41.7197C144.814 41.4931 144.988 41.1636 144.988 40.7305C144.988 40.3572 144.845 40.0629 144.559 39.8496C144.272 39.6363 143.628 39.3996 142.628 39.1396C141.368 38.8263 140.451 38.4137 139.878 37.9004C139.305 37.3804 139.019 36.7168 139.019 35.9102C139.019 35.0368 139.392 34.3269 140.139 33.7803C140.892 33.227 141.815 32.9502 142.908 32.9502Z" fill="#1F2123" style="fill:#1F2123;fill:color(display-p3 0.1216 0.1294 0.1373);fill-opacity:1;"/>
<path d="M151.413 30.3701C151.533 30.3702 151.633 30.4134 151.713 30.5C151.799 30.5865 151.843 30.6898 151.843 30.8096V33.2705H153.933C154.033 33.2705 154.116 33.3066 154.183 33.3799C154.256 33.4465 154.293 33.5299 154.293 33.6299V34.71C154.293 34.8099 154.256 34.8964 154.183 34.9697C154.116 35.0364 154.033 35.0703 153.933 35.0703H151.843V40.4102C151.843 40.9368 151.95 41.3299 152.163 41.5898C152.376 41.843 152.693 41.9696 153.112 41.9697C153.226 41.9697 153.346 41.9635 153.473 41.9502C153.599 41.9302 153.75 41.9096 153.923 41.8896C154.103 41.8631 154.216 41.8765 154.263 41.9297C154.309 41.9829 154.333 42.0532 154.333 42.1396V43.25C154.333 43.33 154.313 43.3969 154.273 43.4502C154.239 43.5035 154.129 43.5602 153.942 43.6201C153.763 43.6867 153.569 43.7372 153.362 43.7705C153.162 43.8038 152.926 43.8203 152.652 43.8203C151.753 43.8202 151.033 43.5598 150.493 43.04C149.96 42.5134 149.692 41.7696 149.692 40.8096V35.0703H148.373C148.273 35.0703 148.186 35.0364 148.112 34.9697C148.046 34.8965 148.013 34.8098 148.013 34.71V33.6299C148.013 33.53 148.046 33.4465 148.112 33.3799C148.186 33.3066 148.273 33.2705 148.373 33.2705H149.692V30.8096C149.693 30.6898 149.733 30.5865 149.813 30.5C149.899 30.4133 150.003 30.3701 150.123 30.3701H151.413Z" fill="#1F2123" style="fill:#1F2123;fill:color(display-p3 0.1216 0.1294 0.1373);fill-opacity:1;"/>
<path fill-rule="evenodd" clip-rule="evenodd" d="M160.496 32.9502C161.923 32.9502 163.073 33.3866 163.946 34.2598C164.826 35.1263 165.267 36.2131 165.267 37.5195V38.3896C165.267 38.5029 165.226 38.5997 165.147 38.6797C165.073 38.7596 164.97 38.7997 164.837 38.7998H157.705C157.749 39.7455 158.031 40.5088 158.557 41.0898C159.137 41.7165 159.873 42.0303 160.767 42.0303C161.18 42.0303 161.533 41.9736 161.826 41.8604C162.119 41.7471 162.38 41.5936 162.607 41.4004C162.84 41.2071 163.08 40.9262 163.326 40.5596C163.399 40.4598 163.483 40.3968 163.576 40.3701C163.67 40.3435 163.763 40.3568 163.857 40.4102L164.807 40.9502C164.9 41.0035 164.957 41.0799 164.977 41.1797C164.997 41.273 164.976 41.38 164.916 41.5C164.616 42.0532 164.257 42.4937 163.837 42.8203C163.424 43.147 162.96 43.3929 162.446 43.5596C161.94 43.7329 161.323 43.8203 160.597 43.8203C159.117 43.8203 157.91 43.3296 156.977 42.3496C156.05 41.3697 155.587 40.1101 155.587 38.5703V38.2002C155.587 36.6802 156.047 35.4271 156.967 34.4404C157.887 33.4472 159.063 32.9503 160.496 32.9502ZM160.486 34.7803C159.653 34.7803 158.98 35.0838 158.467 35.6904C158.09 36.1306 157.852 36.6871 157.752 37.3604H163.147V37.2197C163.107 36.5132 162.85 35.9296 162.377 35.4697C161.904 35.0097 161.273 34.7803 160.486 34.7803Z" fill="#1F2123" style="fill:#1F2123;fill:color(display-p3 0.1216 0.1294 0.1373);fill-opacity:1;"/>
<path d="M88.1524 33.2305C88.2724 33.2305 88.3722 33.2737 88.4522 33.3604C88.5388 33.4403 88.5821 33.5402 88.5821 33.6602V43.1104C88.582 43.2302 88.5388 43.3333 88.4522 43.4199C88.3722 43.5066 88.2724 43.5498 88.1524 43.5498H86.8526C86.7394 43.5498 86.6394 43.5065 86.5528 43.4199C86.4662 43.3333 86.422 43.2302 86.4219 43.1104V33.6602C86.4219 33.5402 86.4661 33.4404 86.5528 33.3604C86.6395 33.2737 86.7393 33.2305 86.8526 33.2305H88.1524Z" fill="#1F2123" style="fill:#1F2123;fill:color(display-p3 0.1216 0.1294 0.1373);fill-opacity:1;"/>
<path d="M108.293 32.9502C109.426 32.9502 110.31 33.2866 110.943 33.96C111.577 34.6333 111.893 35.5635 111.893 36.75V43.1104C111.893 43.2302 111.849 43.3333 111.763 43.4199C111.683 43.5066 111.583 43.5498 111.463 43.5498H110.163C110.05 43.5498 109.95 43.5065 109.863 43.4199C109.777 43.3333 109.733 43.2302 109.732 43.1104V37.1602C109.732 36.3869 109.546 35.8035 109.173 35.4102C108.806 35.0168 108.263 34.8203 107.543 34.8203C106.85 34.8203 106.269 35.0931 105.803 35.6396C105.343 36.1796 105.113 36.8331 105.113 37.5996V43.1104C105.113 43.2302 105.069 43.3333 104.982 43.4199C104.896 43.5065 104.793 43.5498 104.673 43.5498H103.383C103.263 43.5498 103.16 43.5065 103.073 43.4199C102.993 43.3333 102.953 43.2302 102.953 43.1104V33.6396C102.953 33.5265 102.993 33.4295 103.073 33.3496C103.153 33.2699 103.25 33.2305 103.363 33.2305H104.593C104.706 33.2305 104.803 33.2698 104.883 33.3496C104.97 33.4296 105.013 33.5233 105.013 33.6299V34.7305H105.073C105.373 34.2038 105.82 33.7769 106.413 33.4502C107.013 33.1169 107.64 32.9502 108.293 32.9502Z" fill="#1F2123" style="fill:#1F2123;fill:color(display-p3 0.1216 0.1294 0.1373);fill-opacity:1;"/>
<path d="M178.762 32.9502C179.895 32.9502 180.759 33.2897 181.353 33.9697C181.946 34.6431 182.242 35.5968 182.242 36.8301V43.1104C182.242 43.2301 182.199 43.3334 182.112 43.4199C182.032 43.5065 181.932 43.5497 181.813 43.5498H180.532C180.412 43.5498 180.308 43.5066 180.222 43.4199C180.142 43.3334 180.103 43.2301 180.103 43.1104V37.1797C180.103 36.3801 179.939 35.787 179.612 35.4004C179.286 35.0138 178.782 34.8204 178.103 34.8203C177.443 34.8203 176.889 35.09 176.442 35.6299C175.996 36.1631 175.773 36.8198 175.773 37.5996V43.1104C175.772 43.2301 175.729 43.3334 175.643 43.4199C175.563 43.5066 175.462 43.5498 175.342 43.5498H174.052C173.932 43.5497 173.829 43.5065 173.742 43.4199C173.662 43.3333 173.622 43.2302 173.622 43.1104V37.1904C173.622 36.3905 173.455 35.7968 173.122 35.4102C172.795 35.0168 172.295 34.8203 171.622 34.8203C170.969 34.8203 170.418 35.093 169.972 35.6396C169.532 36.1863 169.313 36.8499 169.313 37.6299V43.1104C169.312 43.2302 169.268 43.3333 169.182 43.4199C169.095 43.5065 168.992 43.5498 168.872 43.5498H167.582C167.462 43.5498 167.359 43.5065 167.273 43.4199C167.193 43.3333 167.152 43.2302 167.152 43.1104V33.6396C167.152 33.5265 167.193 33.4295 167.273 33.3496C167.352 33.2699 167.449 33.2305 167.563 33.2305H168.792C168.905 33.2305 169.002 33.2698 169.082 33.3496C169.169 33.4296 169.212 33.5233 169.212 33.6299V34.7402H169.273C169.552 34.2137 169.979 33.7835 170.552 33.4502C171.125 33.1169 171.735 32.9502 172.382 32.9502C173.089 32.9502 173.709 33.12 174.242 33.46C174.782 33.7933 175.169 34.2532 175.402 34.8398C175.776 34.22 176.252 33.7496 176.832 33.4297C177.419 33.1098 178.062 32.9503 178.762 32.9502Z" fill="#1F2123" style="fill:#1F2123;fill:color(display-p3 0.1216 0.1294 0.1373);fill-opacity:1;"/>
<path fill-rule="evenodd" clip-rule="evenodd" d="M56.9005 29.1797C59.0005 29.1797 60.6877 29.8103 61.961 31.0703C63.2407 32.3235 63.8808 33.9866 63.8809 36.0596V36.54C63.8809 38.6466 63.244 40.333 61.9708 41.5996C60.6974 42.8663 59.004 43.5 56.8907 43.5H52.9903C52.8572 43.4999 52.7437 43.4536 52.6505 43.3604C52.5572 43.2671 52.5109 43.1536 52.5108 43.0205V29.6602C52.5108 29.527 52.5573 29.4136 52.6505 29.3203C52.7437 29.2271 52.8572 29.1798 52.9903 29.1797H56.9005ZM54.6807 41.4902H56.8311C58.3443 41.4968 59.5308 41.0699 60.3907 40.21C61.2507 39.3433 61.6807 38.1334 61.6807 36.5801V36.0498C61.6807 34.5234 61.2474 33.3368 60.3809 32.4902C59.521 31.6436 58.3408 31.2198 56.8409 31.2197H54.6807V41.4902Z" fill="#1F2123" style="fill:#1F2123;fill:color(display-p3 0.1216 0.1294 0.1373);fill-opacity:1;"/>
<path d="M87.502 28.6797C87.8819 28.6797 88.1958 28.8064 88.4425 29.0596C88.6958 29.3062 88.8223 29.62 88.8223 30C88.8223 30.3733 88.6958 30.6902 88.4425 30.9502C88.1958 31.2102 87.882 31.3398 87.502 31.3398C87.129 31.3398 86.8127 31.2099 86.5528 30.9502C86.2928 30.6902 86.1622 30.3733 86.1622 30C86.1622 29.62 86.2928 29.3062 86.5528 29.0596C86.8126 28.8066 87.129 28.6798 87.502 28.6797Z" fill="#1F2123" style="fill:#1F2123;fill:color(display-p3 0.1216 0.1294 0.1373);fill-opacity:1;"/>
<path d="M64.1856 8.16016C64.3055 8.16022 64.4189 8.19632 64.5255 8.26953C64.632 8.34277 64.7052 8.43977 64.7452 8.55957L66.505 13.6504L66.8155 14.7998H66.8848L67.2149 13.6504L68.8956 8.55957C68.9356 8.44645 69.0026 8.3535 69.0958 8.28027C69.1956 8.20045 69.3051 8.16025 69.4249 8.16016H71.2549C71.4549 8.16016 71.6082 8.24039 71.7149 8.40039C71.8282 8.55371 71.8416 8.73689 71.7549 8.9502L66.5255 22.5303C66.4855 22.6301 66.4122 22.7168 66.3057 22.79C66.1992 22.87 66.0889 22.9101 65.9757 22.9102H64.0655C63.8522 22.9102 63.6917 22.8268 63.585 22.6602C63.4784 22.4935 63.4691 22.3063 63.5557 22.0996L65.3321 17.9189L61.8253 8.98047C61.7253 8.7472 61.7356 8.5537 61.8555 8.40039C61.9755 8.24039 62.1288 8.16016 62.3155 8.16016H64.1856Z" fill="#1F2123" style="fill:#1F2123;fill:color(display-p3 0.1216 0.1294 0.1373);fill-opacity:1;"/>
<path d="M135.69 8.16016C135.809 8.16022 135.923 8.19631 136.029 8.26953C136.136 8.34278 136.209 8.43977 136.249 8.55957L138.009 13.6504L138.319 14.7998H138.389L138.719 13.6504L140.399 8.55957C140.439 8.44663 140.506 8.35345 140.599 8.28027C140.699 8.20036 140.809 8.16025 140.929 8.16016H142.759C142.959 8.16016 143.112 8.24039 143.219 8.40039C143.332 8.55371 143.346 8.73689 143.259 8.9502L138.029 22.5303C137.989 22.6301 137.916 22.7168 137.81 22.79C137.703 22.87 137.593 22.9101 137.48 22.9102H135.569C135.356 22.9102 135.196 22.8268 135.089 22.6602C134.982 22.4935 134.973 22.3063 135.06 22.0996L136.836 17.9199L133.329 8.98047C133.229 8.74719 133.24 8.55371 133.359 8.40039C133.479 8.24039 133.633 8.16016 133.819 8.16016H135.69Z" fill="#1F2123" style="fill:#1F2123;fill:color(display-p3 0.1216 0.1294 0.1373);fill-opacity:1;"/>
<path d="M56.501 3.86035C57.2943 3.86038 57.9879 3.97355 58.5811 4.2002C59.1742 4.42683 59.6571 4.74697 60.0303 5.16016C60.4103 5.57349 60.6572 5.99016 60.7706 6.41016C60.8906 6.82345 60.9173 7.08377 60.8507 7.19043C60.7907 7.29688 60.7041 7.3702 60.5909 7.41016L59.0303 7.99023C58.9172 8.03008 58.8108 8.03947 58.711 8.01953C58.6177 7.99288 58.5178 7.88667 58.4112 7.7002C58.3112 7.50686 58.1672 7.30628 57.9805 7.09961C57.8006 6.89312 57.5802 6.73649 57.3204 6.62988C57.0672 6.51669 56.7808 6.45999 56.461 6.45996C55.9877 6.45996 55.607 6.57314 55.3204 6.7998C55.0339 7.01973 54.8908 7.31324 54.8907 7.67969V7.76953C54.8907 8.15605 55.0339 8.48649 55.3204 8.75977C55.607 9.0331 56.3477 9.40965 57.5411 9.88965C58.8677 10.4163 59.8308 11.047 60.4307 11.7803C61.0307 12.5069 61.3311 13.3568 61.3311 14.3301V14.4902C61.3311 15.8101 60.8711 16.8638 59.9512 17.6504C59.038 18.4303 57.8443 18.8202 56.3712 18.8203C55.5045 18.8203 54.7473 18.6835 54.1007 18.4102C53.4607 18.1302 52.9308 17.7495 52.5108 17.2695C52.0977 16.7897 51.8176 16.2934 51.671 15.7803C51.531 15.2669 51.4939 14.9532 51.5606 14.8398C51.6273 14.7199 51.724 14.6365 51.8507 14.5898L53.4708 14C53.5974 13.9533 53.7178 13.9502 53.8311 13.9902C53.9443 14.0238 54.0609 14.1906 54.1807 14.4902C54.3074 14.7835 54.4741 15.0635 54.6807 15.3301C54.8941 15.5967 55.1512 15.8066 55.4512 15.96C55.7511 16.1065 56.0941 16.1797 56.4805 16.1797C57.0272 16.1797 57.4675 16.0429 57.8008 15.7695C58.1406 15.4962 58.3106 15.1266 58.3106 14.6602V14.4805C58.3106 13.994 58.0943 13.5936 57.6612 13.2803C57.2279 12.9603 56.491 12.5703 55.4512 12.1104C54.1912 11.557 53.2746 10.9562 52.7012 10.3096C52.1347 9.663 51.8507 8.87357 51.8507 7.94043V7.82031C51.8507 6.6671 52.2809 5.72043 53.1407 4.98047C54.0007 4.2338 55.121 3.86035 56.501 3.86035Z" fill="#1F2123" style="fill:#1F2123;fill:color(display-p3 0.1216 0.1294 0.1373);fill-opacity:1;"/>
<path fill-rule="evenodd" clip-rule="evenodd" d="M112.272 7.90039C113.665 7.90049 114.798 8.33053 115.671 9.19043C116.551 10.0504 116.991 11.1606 116.991 12.5205V13.4805C116.991 13.6136 116.948 13.7271 116.861 13.8203C116.775 13.9069 116.635 13.9501 116.441 13.9502H110.285C110.303 14.7249 110.507 15.3413 110.901 15.7998C111.321 16.2731 111.884 16.5097 112.591 16.5098C112.918 16.5098 113.194 16.4665 113.421 16.3799C113.654 16.2866 113.861 16.1671 114.041 16.0205C114.221 15.8672 114.418 15.6335 114.631 15.3203C114.711 15.227 114.808 15.1663 114.921 15.1396C115.034 15.113 115.148 15.1367 115.261 15.21L116.461 15.9199C116.581 15.9866 116.651 16.0833 116.671 16.21C116.698 16.3299 116.678 16.4534 116.611 16.5801C116.305 17.0933 115.958 17.5101 115.571 17.8301C115.185 18.1433 114.738 18.3862 114.232 18.5596C113.725 18.7329 113.084 18.8203 112.311 18.8203C110.804 18.8202 109.598 18.3562 108.691 17.4297C107.791 16.503 107.341 15.2798 107.341 13.7598V13.0205C107.341 11.5006 107.798 10.267 108.711 9.32031C109.624 8.37365 110.812 7.90039 112.272 7.90039ZM112.272 10.2998C111.665 10.2998 111.181 10.5169 110.821 10.9502C110.52 11.3125 110.346 11.7958 110.297 12.4004H114.171V12.1104C114.138 11.5704 113.951 11.1331 113.611 10.7998C113.278 10.4666 112.831 10.2999 112.272 10.2998Z" fill="#1F2123" style="fill:#1F2123;fill:color(display-p3 0.1216 0.1294 0.1373);fill-opacity:1;"/>
<path d="M121.625 5.34961C121.792 5.34971 121.935 5.41347 122.055 5.54004C122.175 5.65996 122.234 5.80321 122.234 5.96973V8.21973H124.055C124.181 8.21975 124.292 8.26704 124.385 8.36035C124.478 8.4469 124.524 8.55328 124.524 8.67969V10.0703C124.524 10.1969 124.478 10.3071 124.385 10.4004C124.298 10.487 124.188 10.5303 124.055 10.5303H122.234V15.0898C122.234 15.5365 122.328 15.8698 122.515 16.0898C122.708 16.3098 122.985 16.4199 123.345 16.4199C123.465 16.4199 123.588 16.4168 123.715 16.4102C123.842 16.3968 123.992 16.3834 124.165 16.3701C124.338 16.3569 124.448 16.3837 124.494 16.4502C124.548 16.5102 124.574 16.5935 124.574 16.7002V18.0996C124.574 18.2062 124.552 18.2968 124.505 18.3701C124.458 18.4368 124.321 18.5068 124.095 18.5801C123.875 18.6601 123.644 18.7198 123.404 18.7598C123.164 18.7997 122.884 18.8203 122.565 18.8203C121.511 18.8203 120.685 18.5434 120.085 17.9902C119.485 17.4303 119.185 16.5802 119.185 15.4404V10.5303H118.234C118.108 10.5302 117.998 10.487 117.904 10.4004C117.811 10.3071 117.765 10.1969 117.765 10.0703V8.67969C117.765 8.55331 117.811 8.44689 117.904 8.36035C117.998 8.26707 118.108 8.21978 118.234 8.21973H119.185V5.96973C119.185 5.80327 119.245 5.65993 119.364 5.54004C119.484 5.41337 119.628 5.34961 119.795 5.34961H121.625Z" fill="#1F2123" style="fill:#1F2123;fill:color(display-p3 0.1216 0.1294 0.1373);fill-opacity:1;"/>
<path fill-rule="evenodd" clip-rule="evenodd" d="M177.023 7.90039C178.529 7.90043 179.763 8.36963 180.723 9.30957C181.689 10.2496 182.172 11.48 182.172 13V13.71C182.172 15.2233 181.692 16.4537 180.732 17.4004C179.773 18.3469 178.536 18.8203 177.023 18.8203C175.516 18.8203 174.279 18.3469 173.313 17.4004C172.353 16.4537 171.872 15.2233 171.872 13.71V13C171.872 11.4733 172.353 10.2429 173.313 9.30957C174.279 8.3698 175.516 7.90039 177.023 7.90039ZM177.032 10.5303C176.412 10.5303 175.899 10.7504 175.492 11.1904C175.086 11.6304 174.882 12.2036 174.882 12.9102V13.8096C174.882 14.5096 175.082 15.0836 175.482 15.5303C175.889 15.9701 176.406 16.1904 177.032 16.1904C177.646 16.1904 178.156 15.9703 178.563 15.5303C178.969 15.0837 179.172 14.5135 179.172 13.8203V12.9102C179.172 12.2037 178.966 11.6304 178.553 11.1904C178.146 10.7504 177.639 10.5303 177.032 10.5303Z" fill="#1F2123" style="fill:#1F2123;fill:color(display-p3 0.1216 0.1294 0.1373);fill-opacity:1;"/>
<path d="M85.0186 7.90039C86.1251 7.90046 86.9618 8.22352 87.5284 8.87012C88.1017 9.51011 88.3887 10.4135 88.3887 11.5801V17.9502C88.3887 18.1167 88.328 18.263 88.2081 18.3896C88.0881 18.5096 87.945 18.5703 87.7784 18.5703H85.9483C85.7816 18.5703 85.6386 18.5096 85.5186 18.3896C85.3987 18.263 85.338 18.1168 85.338 17.9502V12.1504C85.338 11.5771 85.2145 11.147 84.9678 10.8604C84.7279 10.5671 84.3685 10.42 83.8887 10.4199C83.4087 10.4199 83.0116 10.6071 82.6983 10.9805C82.3918 11.347 82.2384 11.8166 82.2383 12.3896V17.9404C82.2383 18.1134 82.1783 18.2632 82.0587 18.3896C81.9387 18.5096 81.7947 18.5703 81.628 18.5703H79.7979C79.6314 18.5702 79.4881 18.5096 79.3682 18.3896C79.2485 18.2631 79.1886 18.1135 79.1885 17.9404V12.1602C79.1885 11.5802 79.0651 11.1429 78.8184 10.8496C78.5718 10.5564 78.2044 10.4102 77.7178 10.4102C77.2447 10.4103 76.8545 10.6006 76.5479 10.9805C76.2415 11.3604 76.088 11.837 76.088 12.4102V17.9502C76.0879 18.1167 76.0281 18.2631 75.9083 18.3896C75.7883 18.5096 75.6451 18.5702 75.4786 18.5703H73.6485C73.4818 18.5703 73.3347 18.5096 73.2081 18.3896C73.0883 18.2631 73.0284 18.1167 73.0284 17.9502V8.74023C73.0284 8.58024 73.085 8.44341 73.1983 8.33008C73.3183 8.21675 73.4582 8.16017 73.6182 8.16016H75.3682C75.5282 8.16016 75.6651 8.21365 75.7784 8.32031C75.8916 8.42694 75.9483 8.55362 75.9483 8.7002V9.62988H76.0186C76.2786 9.11675 76.6781 8.69981 77.2178 8.37988C77.7645 8.05988 78.3653 7.90039 79.0186 7.90039C79.6851 7.90044 80.2687 8.05374 80.7686 8.36035C81.2751 8.667 81.6354 9.09002 81.8487 9.62988C82.2153 9.0435 82.6714 8.61004 83.2178 8.33008C83.7712 8.04341 84.372 7.90039 85.0186 7.90039Z" fill="#1F2123" style="fill:#1F2123;fill:color(display-p3 0.1216 0.1294 0.1373);fill-opacity:1;"/>
<path d="M102.46 7.90039C103.567 7.90046 104.403 8.22352 104.97 8.87012C105.543 9.51011 105.83 10.4135 105.83 11.5801V17.9502C105.83 18.1167 105.769 18.263 105.649 18.3896C105.53 18.5096 105.386 18.5703 105.22 18.5703H103.39C103.223 18.5703 103.08 18.5096 102.96 18.3896C102.84 18.263 102.779 18.1168 102.779 17.9502V12.1504C102.779 11.5771 102.656 11.147 102.409 10.8604C102.169 10.5671 101.81 10.42 101.33 10.4199C100.85 10.4199 100.453 10.6071 100.14 10.9805C99.8333 11.347 99.6798 11.8166 99.6798 12.3896V17.9404C99.6797 18.1134 99.6197 18.2632 99.5001 18.3896C99.3801 18.5096 99.2361 18.5703 99.0694 18.5703H97.2393C97.0728 18.5702 96.9296 18.5096 96.8096 18.3896C96.6899 18.2631 96.63 18.1135 96.63 17.9404V12.1602C96.63 11.5802 96.5065 11.1429 96.2598 10.8496C96.0132 10.5564 95.6458 10.4102 95.1592 10.4102C94.6861 10.4103 94.2959 10.6006 93.9893 10.9805C93.6829 11.3604 93.5294 11.837 93.5294 12.4102V17.9502C93.5293 18.1167 93.4695 18.2631 93.3497 18.3896C93.2298 18.5096 93.0865 18.5702 92.92 18.5703H91.0899C90.9232 18.5703 90.7761 18.5096 90.6495 18.3896C90.5297 18.2631 90.4698 18.1167 90.4698 17.9502V8.74023C90.4698 8.58024 90.5264 8.44341 90.6397 8.33008C90.7597 8.21675 90.8997 8.16017 91.0596 8.16016H92.8096C92.9696 8.16016 93.1065 8.21365 93.2198 8.32031C93.333 8.42694 93.3897 8.55362 93.3897 8.7002V9.62988H93.46C93.72 9.11675 94.1195 8.69981 94.6592 8.37988C95.2059 8.05988 95.8067 7.90039 96.46 7.90039C97.1266 7.90044 97.7101 8.05374 98.21 8.36035C98.7165 8.667 99.0768 9.09002 99.2901 9.62988C99.6567 9.0435 100.113 8.61004 100.659 8.33008C101.213 8.04341 101.813 7.90039 102.46 7.90039Z" fill="#1F2123" style="fill:#1F2123;fill:color(display-p3 0.1216 0.1294 0.1373);fill-opacity:1;"/>
<path d="M131.652 7.90039C131.812 7.9004 131.979 7.91687 132.152 7.9502C132.326 7.98353 132.489 8.03703 132.643 8.11035C132.796 8.18363 132.893 8.25991 132.933 8.33984C132.973 8.41984 132.992 8.51035 132.992 8.61035V10.3096C132.986 10.4096 132.959 10.497 132.912 10.5703C132.872 10.6434 132.756 10.6797 132.563 10.6797C132.376 10.673 132.172 10.6565 131.952 10.6299C131.732 10.6032 131.519 10.593 131.313 10.5996C130.693 10.5996 130.193 10.8066 129.813 11.2197C129.439 11.6331 129.252 12.1835 129.252 12.8701V17.9502C129.252 18.1167 129.192 18.2631 129.072 18.3896C128.952 18.5096 128.809 18.5702 128.643 18.5703H126.813C126.646 18.5703 126.499 18.5096 126.372 18.3896C126.252 18.2631 126.192 18.1167 126.192 17.9502V8.75C126.192 8.59001 126.249 8.45317 126.362 8.33984C126.482 8.21993 126.622 8.16017 126.782 8.16016H128.542C128.695 8.16016 128.829 8.21365 128.942 8.32031C129.062 8.42693 129.122 8.55674 129.122 8.70996V9.63965H129.183C129.349 9.11994 129.665 8.69977 130.132 8.37988C130.599 8.05988 131.106 7.90039 131.652 7.90039Z" fill="#1F2123" style="fill:#1F2123;fill:color(display-p3 0.1216 0.1294 0.1373);fill-opacity:1;"/>
<path d="M151.295 4.11035C151.468 4.11035 151.615 4.17314 151.735 4.2998C151.862 4.4198 151.925 4.56692 151.925 4.74023V17.9404C151.925 18.1134 151.862 18.2632 151.735 18.3896C151.615 18.5096 151.468 18.5703 151.295 18.5703H149.425C149.252 18.5703 149.101 18.5096 148.975 18.3896C148.855 18.2632 148.795 18.1134 148.795 17.9404V4.74023C148.795 4.56696 148.855 4.41978 148.975 4.2998C149.101 4.1732 149.252 4.11041 149.425 4.11035H151.295Z" fill="#1F2123" style="fill:#1F2123;fill:color(display-p3 0.1216 0.1294 0.1373);fill-opacity:1;"/>
<path d="M160.398 7.90039C161.417 7.90043 162.224 8.21324 162.817 8.83984C163.411 9.45984 163.707 10.3137 163.707 11.4004V17.9502C163.707 18.1167 163.647 18.2631 163.527 18.3896C163.408 18.5096 163.264 18.5702 163.098 18.5703H161.268C161.101 18.5703 160.957 18.5096 160.837 18.3896C160.717 18.2631 160.657 18.1166 160.657 17.9502V12.0898C160.657 11.5433 160.52 11.1265 160.247 10.8398C159.98 10.5466 159.594 10.4004 159.087 10.4004C158.594 10.4005 158.184 10.5868 157.857 10.96C157.538 11.3266 157.377 11.7866 157.377 12.3398V17.9502C157.377 18.1167 157.317 18.2631 157.197 18.3896C157.077 18.5096 156.934 18.5702 156.768 18.5703H154.938C154.771 18.5703 154.624 18.5096 154.497 18.3896C154.377 18.2631 154.317 18.1167 154.317 17.9502V8.75C154.317 8.58335 154.374 8.4434 154.487 8.33008C154.607 8.21676 154.747 8.16017 154.907 8.16016H156.657C156.817 8.16016 156.954 8.21365 157.067 8.32031C157.181 8.42693 157.237 8.55675 157.237 8.70996V9.59961H157.308C157.621 9.0665 158.057 8.64952 158.617 8.34961C159.184 8.04965 159.778 7.90039 160.398 7.90039Z" fill="#1F2123" style="fill:#1F2123;fill:color(display-p3 0.1216 0.1294 0.1373);fill-opacity:1;"/>
<path d="M169.952 3.86035C170.186 3.86035 170.416 3.87682 170.643 3.91016C170.876 3.93682 171.099 3.98316 171.313 4.0498C171.533 4.11646 171.666 4.18645 171.713 4.25977C171.76 4.33303 171.782 4.41653 171.782 4.50977V5.92969C171.782 6.02959 171.766 6.11305 171.732 6.17969C171.706 6.23969 171.626 6.27671 171.492 6.29004C171.359 6.30334 171.216 6.30646 171.063 6.2998C170.909 6.29315 170.75 6.29316 170.583 6.2998C170.25 6.30647 169.979 6.40319 169.773 6.58984C169.566 6.77651 169.463 7.06043 169.463 7.44043V8.21973H170.973C171.099 8.21974 171.206 8.26703 171.293 8.36035C171.386 8.44688 171.433 8.55333 171.433 8.67969V10.0703C171.433 10.1969 171.386 10.3071 171.293 10.4004C171.206 10.487 171.099 10.5303 170.973 10.5303H169.473V17.9502C169.473 18.1166 169.413 18.2631 169.293 18.3896C169.173 18.5096 169.029 18.5703 168.862 18.5703H167.023C166.856 18.5703 166.713 18.5096 166.593 18.3896C166.473 18.2631 166.412 18.1167 166.412 17.9502V10.5303H165.492C165.366 10.5302 165.255 10.487 165.162 10.4004C165.069 10.3071 165.023 10.1968 165.023 10.0703V8.67969C165.023 8.55336 165.069 8.44687 165.162 8.36035C165.255 8.26712 165.366 8.21983 165.492 8.21973H166.412V7.26953C166.412 6.22311 166.723 5.39351 167.343 4.78027C167.963 4.16702 168.832 3.86043 169.952 3.86035Z" fill="#1F2123" style="fill:#1F2123;fill:color(display-p3 0.1216 0.1294 0.1373);fill-opacity:1;"/>
</svg>
